<?xml version="1.0" encoding="utf-8"?>
<!-- Generator: Adobe Illustrator 28.1.0, SVG Export Plug-In . SVG Version: 6.00 Build 0)  -->
<svg version="1.1" id="Layer_1" xmlns="http://www.w3.org/2000/svg" xmlns:xlink="http://www.w3.org/1999/xlink" x="0px" y="0px"
	 viewBox="0 0 100 100" style="enable-background:new 0 0 100 100;" xml:space="preserve">
<style type="text/css">
	.st0{fill:#BF1E2E;}
	.st1{fill:#FFFFFF;}
</style>
<g>
	<path class="st0" d="M0,52.4c-0.1-3.1,0-6.1,0.5-9.2c0.2-1.6,0.5-3.3,0.9-4.9c1-4.1,2.5-8.1,4.5-11.8c2.2-4.2,5-8.1,8.3-11.5
		c2-2,4.1-3.9,6.4-5.6c3.3-2.5,6.9-4.5,10.8-6c3.1-1.2,6.3-2.2,9.6-2.7c5-0.8,10.1-0.9,15.1-0.2c0,0,0,0,0.1,0
		c2.1,0.3,4.2,0.7,6.2,1.2c3.9,1,7.6,2.4,11.2,4.3c5,2.6,9.4,6,13.3,10.1c3.4,3.6,6.2,7.6,8.3,12.1c1.4,2.8,2.4,5.7,3.2,8.6
		c1.9,7.1,2.2,14.7,0.9,21.9c-0.4,2.3-1,4.6-1.7,6.8c-0.9,2.6-1.9,5.1-3.2,7.5c-2.7,5.2-6.3,9.7-10.6,13.7
		c-3.8,3.5-8.1,6.4-12.9,8.6c-2.8,1.3-5.7,2.3-8.7,3.1c-7.9,2-16.2,2.1-24.1,0.2c-4.9-1.2-9.5-3.1-13.8-5.7c-4-2.4-7.6-5.3-10.8-8.7
		c-2.3-2.4-4.3-5-6.1-7.8c-2-3.2-3.7-6.6-4.9-10.2c-0.8-2.3-1.4-4.6-1.8-6.9c-0.2-1.2-0.4-2.4-0.5-3.6C0.1,54.5,0.1,53.4,0,52.4z
		 M64.8,27.2c-1.1,0-2.3,0.2-3.4,0.6c-1.2,0.4-2.4,1-3.5,1.6c-3,1.8-5.9,3.7-8.7,5.9c-3.9,3-7.6,6.3-11.2,9.8
		c-1.6,1.6-3.1,3.2-4.6,4.8c-1.9,2.1-3.8,4.1-5.6,6.3c-0.5,0.6-1,1.3-1.2,2.1c-0.6,1.5-0.6,3.1-0.1,4.6c0.8,2.3,2.3,3.9,4.4,5
		c0.7,0.4,1.5,0.6,2.4,0.7c1.1,0.1,2.1-0.2,3.1-0.6c1-0.5,1.9-1.1,2.6-1.9c1.5-1.5,3-3,4.4-4.4c0.7-0.7,1.3-1.3,2-2
		c1.6-1.5,3.1-3,4.7-4.6c0.8-0.7,1.5-1.5,2.3-2.2c1.4-1.3,2.9-2.5,4.3-3.7c0.1-0.1,0.2-0.3,0.4-0.3c0.2,0,0.3,0.2,0.5,0.3
		c0,0,0,0,0,0c0,0,0,0.1,0,0.1c0,0,0,0.1-0.1,0.1c-1.1,2.1-2.2,4.2-3.3,6.3c-0.4,0.7-0.7,1.4-0.9,2.1c-0.5,1.7-0.2,3.3,0.7,4.7
		c0.4,0.7,1,1.3,1.6,1.8c1.3,1.2,2.9,1.9,4.6,2.1c1.6,0.1,3.2-0.2,4.6-1.1c1.1-0.7,2-1.6,2.7-2.7c1.2-1.8,2.2-3.8,3.2-5.8
		c1-2.3,1.9-4.7,2.4-7.2c0.3-1.2,0.5-2.3,0.6-3.5c0.1-0.9,0.2-1.8,0.2-2.7c0-0.8,0.1-1.6,0-2.4c0-1-0.1-2-0.2-3.1
		c-0.1-1.4-0.4-2.7-0.7-4c-0.3-1.1-0.6-2.1-1.2-3C71,29.8,70,28.7,68.6,28C67.4,27.4,66.2,27.2,64.8,27.2z"/>
	<path class="st1" d="M51.7,0C51.7,0,51.7,0,51.7,0c-0.2,0.1-0.5,0.1-0.7,0c-0.2,0-0.3,0-0.5,0C50.9,0,51.3,0,51.7,0z"/>
	<path class="st1" d="M46.5,0.1C46.5,0,46.5,0,46.5,0.1C46.8,0,47.2,0,47.5,0c-0.2,0-0.4,0-0.6,0.1C46.8,0.1,46.6,0.1,46.5,0.1z"/>
	<path class="st1" d="M100,46C100.1,46,100.1,46,100,46c0.1,0.4,0.1,0.7,0.1,1.1c0-0.3,0-0.5-0.1-0.8C100,46.2,100,46.1,100,46z"/>
	<path class="st1" d="M64.8,27.2c1.4,0,2.6,0.3,3.8,0.8c1.4,0.7,2.4,1.7,3.2,3.1c0.6,0.9,0.9,2,1.2,3c0.3,1.3,0.6,2.7,0.7,4
		c0.1,1,0.2,2,0.2,3.1c0,0.8,0,1.6,0,2.4c0,0.9-0.1,1.8-0.2,2.7c-0.1,1.2-0.4,2.3-0.6,3.5c-0.6,2.5-1.4,4.9-2.4,7.2
		c-0.9,2-2,3.9-3.2,5.8c-0.7,1.1-1.6,2-2.7,2.7c-1.4,0.9-2.9,1.2-4.6,1.1c-1.8-0.2-3.3-0.9-4.6-2.1c-0.6-0.5-1.1-1.2-1.6-1.8
		c-0.9-1.5-1.2-3.1-0.7-4.7c0.2-0.7,0.5-1.4,0.9-2.1c1.1-2.1,2.2-4.2,3.3-6.3c0,0,0-0.1,0.1-0.1c0,0,0-0.1,0-0.1c0,0,0,0,0,0
		c-0.2-0.1-0.3-0.3-0.5-0.3c-0.2,0-0.3,0.2-0.4,0.3c-1.4,1.2-2.9,2.4-4.3,3.7c-0.8,0.7-1.6,1.5-2.3,2.2c-1.6,1.5-3.1,3-4.7,4.6
		c-0.7,0.7-1.3,1.3-2,2c-1.5,1.5-3,3-4.4,4.4c-0.8,0.8-1.6,1.4-2.6,1.9c-1,0.5-2,0.7-3.1,0.6c-0.8-0.1-1.6-0.3-2.4-0.7
		c-2.1-1.1-3.6-2.8-4.4-5c-0.5-1.5-0.5-3.1,0.1-4.6c0.3-0.8,0.7-1.4,1.2-2.1c1.8-2.1,3.7-4.2,5.6-6.3c1.5-1.6,3.1-3.2,4.6-4.8
		c3.5-3.5,7.2-6.8,11.2-9.8c2.8-2.1,5.7-4.1,8.7-5.9c1.1-0.7,2.3-1.2,3.5-1.6C62.5,27.4,63.7,27.2,64.8,27.2z"/>
</g>
</svg>
