<?xml version="1.0" encoding="utf-8"?>
<!-- Generator: Adobe Illustrator 28.1.0, SVG Export Plug-In . SVG Version: 6.00 Build 0)  -->
<svg version="1.1" id="Layer_1" xmlns="http://www.w3.org/2000/svg" xmlns:xlink="http://www.w3.org/1999/xlink" x="0px" y="0px"
	 viewBox="0 0 100 100" style="enable-background:new 0 0 100 100;" xml:space="preserve">
<style type="text/css">
	.st0{fill:#FF4E1C;}
	.st1{fill:#FFFFFF;}
</style>
<g>
	<path class="st0" d="M100,50.1C99.9,77.7,77.6,99.9,50,100C22.4,100,0.1,77.5,0,50.2C-0.1,22.3,22.7,0.1,49.9,0
		C77.6,0,100.1,22.6,100,50.1z M57.2,33c-0.4-0.1-0.7-0.2-0.9-0.3c-2.8-1.1-5.7-1.7-8.7-1.8c-9.1-0.2-16.7,3-22.4,10.1
		c-6.9,8.6-8.1,18.2-3.9,28.4c2.7,6.5,7.5,11.1,13.9,14c1,0.5,1.1,0.5,1.5-0.6c1.6-4,3.3-8,4.9-12c0.5-1.3,1.1-2.6,1.7-4
		c0.2,0.1,0.3,0.1,0.4,0.2c4,1.5,8.1,2.1,12.4,1.7c6.2-0.6,11.6-3,16.2-7.2c5.2-4.8,8.1-10.8,8.7-17.8c0.6-7.1-1.3-13.6-5.7-19.3
		c-2.8-3.6-6.2-6.3-10.3-8.2c-0.5-0.2-0.8-0.3-1.1,0.4c-1.2,3-2.4,5.9-3.7,8.9C59.2,28.1,58.2,30.5,57.2,33z"/>
	<path class="st1" d="M57.2,33c1-2.5,2.1-5,3.1-7.4c1.2-3,2.5-5.9,3.7-8.9c0.3-0.7,0.6-0.6,1.1-0.4c4.1,1.9,7.6,4.6,10.3,8.2
		c4.4,5.7,6.3,12.1,5.7,19.3c-0.6,7-3.6,13-8.7,17.8c-4.5,4.2-10,6.6-16.2,7.2c-4.2,0.4-8.4-0.2-12.4-1.7c-0.1,0-0.2-0.1-0.4-0.2
		c-0.6,1.3-1.1,2.7-1.7,4c-1.7,4-3.3,8-4.9,12c-0.4,1.1-0.4,1.1-1.5,0.6c-6.4-2.9-11.2-7.5-13.9-14c-4.3-10.2-3-19.8,3.9-28.4
		C30.8,34,38.4,30.7,47.6,31c3,0.1,5.9,0.7,8.7,1.8C56.5,32.8,56.8,32.9,57.2,33z M43.2,66.8c0.6-1.5,1.2-2.9,1.8-4.2
		c1.6-3.9,3.3-7.9,4.9-11.8c0.2-0.4,0.1-0.6-0.3-0.8c-2.3-0.8-4.6-0.8-6.8,0.3c-3.6,1.7-5.6,5.2-5.2,9.1
		C37.9,62.8,39.8,65.3,43.2,66.8z M57.3,33.2c-0.8,2-1.6,3.8-2.4,5.7c-1.4,3.4-2.8,6.8-4.3,10.2c-0.3,0.6-0.1,0.9,0.5,1
		c1.3,0.1,2.6,0.4,3.8,0.2c5.2-0.8,8.5-5.6,7.4-10.8C61.7,36.6,60,34.6,57.3,33.2z"/>
	<path class="st0" d="M43.2,66.8c-3.3-1.5-5.3-3.9-5.7-7.4c-0.4-4,1.6-7.5,5.2-9.1c2.2-1,4.5-1.1,6.8-0.3c0.5,0.2,0.5,0.4,0.3,0.8
		c-1.6,3.9-3.3,7.8-4.9,11.8C44.4,63.9,43.8,65.3,43.2,66.8z"/>
	<path class="st0" d="M57.3,33.2c2.7,1.4,4.5,3.4,5.1,6.3c1.1,5.1-2.2,10-7.4,10.8c-1.2,0.2-2.5-0.1-3.8-0.2c-0.6,0-0.8-0.3-0.5-1
		c1.4-3.4,2.8-6.8,4.3-10.2C55.7,37,56.4,35.2,57.3,33.2z"/>
</g>
</svg>
