<?xml version="1.0" encoding="utf-8"?>
<!-- Generator: Adobe Illustrator 28.1.0, SVG Export Plug-In . SVG Version: 6.00 Build 0)  -->
<svg version="1.1" id="Layer_1" xmlns="http://www.w3.org/2000/svg" xmlns:xlink="http://www.w3.org/1999/xlink" x="0px" y="0px"
	 viewBox="0 0 100 100" style="enable-background:new 0 0 100 100;" xml:space="preserve">
<style type="text/css">
	.st0{fill:#FFFFFF;}
	.st1{fill:#ED3439;}
</style>
<g>
	<circle class="st0" cx="50" cy="50" r="50"/>
	<g>
		<path class="st1" d="M42.3,57.9c0-0.4,0.2-0.9,0.7-1.2c0.8-0.5,1.6-1,2.4-1.5c4-2.5,7.7-5.4,11.1-8.6c1-1,2-1.6,3.5-0.9
			c1.6,0.8,2.7,2,2.8,3.9c0,0.5-0.2,0.9-0.5,1.3c-0.3,0.4-0.6,0.7-1,1.1C57.3,55.7,52.8,59.1,48,62c-2.6,1.6-3.9,0.7-5.2-1.9
			C42.4,59.5,42.3,58.8,42.3,57.9z"/>
		<path class="st1" d="M78.3,46.2c0.6,0,0.8,0.3,1.1,0.5c1.6,1.6,2.3,3.6,2.4,5.8c0,1.1-0.6,2-1.3,2.8c-1.7,2-3.7,3.6-5.9,5
			c-2.1,1.4-4.2,2.7-6.6,3.7c-2.7,1.2-4.5,0.3-5.2-2.6c-0.5-1.9-0.1-2.8,1.7-3.6c3.3-1.5,6.5-3.3,9.6-5.3c1.4-0.9,2.8-2,3.8-3.4
			C78.6,48.2,78.9,47.3,78.3,46.2z"/>
		<path class="st1" d="M33.5,48.7c-2.4,0.7-3.8,2.4-4.9,4.4c-1.8,3.1-2.9,6.3-3.6,9.8c-0.3,1.6-1.8,2.3-3.8,2
			c-1.9-0.3-3.1-1.5-3-3.1c0.1-1.5,0.3-3,0.7-4.4c0.7-3,1.9-5.8,3.9-8.1c3-3.4,6.9-3.7,10.4-0.8C33.3,48.4,33.4,48.5,33.5,48.7z"/>
		<path class="st1" d="M34.3,58.5c-1.5-0.1-2.9-0.4-3.8-2c-0.4-0.7-1-1.4-1.6-2c-0.2-0.2-0.3-0.3-0.1-0.6c0.9-1.5,1.8-3,3.3-4
			c0.6-0.4,1.3-0.8,2.1-0.6c0.5,0.1,0.6-0.3,0.8-0.6c1-1.4,1.9-2.8,3.3-3.9c1.1-0.9,1.6-0.9,2.8-0.2c1.3,0.7,2.1,1.8,2.6,3.2
			c0.3,0.7,0.1,1.2-0.4,1.7c-2.2,2.1-4,4.5-5.5,7.1C37.1,58.1,35.9,58.5,34.3,58.5z"/>
		<path class="st1" d="M59.5,30.5c1.9,0.1,3.9,2.1,4,3.9c0,0.3-0.1,0.6-0.3,0.9c-0.3,0.5-0.6,1-1.1,1.4c-2.6,2.6-5.4,5-8.4,7
			c-1.1,0.7-2.1,1.4-3.4,0.4c-1.5-1.1-2.4-2.4-2.3-4.3c0-0.5,0.4-0.8,0.7-1.1c3.3-2.3,6.3-4.9,9.2-7.7
			C58.4,30.7,58.9,30.4,59.5,30.5z"/>
		<path class="st1" d="M63.8,72.2c-0.1-0.6,0.5-1.1,1.2-1.5c2.1-1,4.2-2.2,6.2-3.5c1.2-0.8,2.3-1.7,3.5-2.5c1.3-0.8,2-0.8,3.3,0.1
			c0.6,0.4,1.1,1,1.4,1.6c0.9,1.7,0.7,2.9-0.8,4.1c-3.1,2.4-6.5,4.5-10.1,6.2c-1.7,0.8-2.5,0.5-3.6-1C64.1,74.8,63.8,73.7,63.8,72.2
			z"/>
		<path class="st1" d="M43.9,32.9c-0.1-0.7,0.4-1.2,1-1.6c1.8-1.4,3.6-2.8,5.2-4.4c1-1,2-2,3.1-3.1c1.4-1.3,2.7-1.4,4.2-0.2
			c0.8,0.6,1.3,1.3,1.6,2.2c0.3,0.7,0.2,1.3-0.1,1.9c-0.1,0.2-0.2,0.4-0.3,0.5c-2.8,3.3-6,6.2-9.6,8.7c-0.7,0.5-1.5,0.5-2.3,0
			C45.1,36.1,43.9,34.4,43.9,32.9z"/>
		<path class="st1" d="M38.5,27.6c0.6,0.2,0.9,0.8,1.1,1.3c0.8,1.5,1.2,3.2,1.2,4.9c0,1.5-0.6,2.7-1.6,3.7c-2.7,2.4-5.9,4-9.4,4.9
			c-1.4,0.4-2.3-0.1-3.1-1.3c-0.6-0.9-0.8-1.9-0.9-2.9c0-1.2,0.3-1.8,1.5-2.2c2.3-0.9,4.6-1.7,6.7-3c1.1-0.7,2.2-1.4,3.1-2.3
			C38,29.8,38.6,28.9,38.5,27.6L38.5,27.6z"/>
		<path class="st1" d="M73.6,45.4c0.8-0.1,1.9,0,2.9,0.3c1.5,0.4,2,1.5,1.2,2.9c-1,1.7-2.6,3.2-4.3,3.8c-1.8,0.6-3.8,0.7-5.8,0.5
			c-0.6-0.1-1-0.5-1.2-1c-0.7-1.3-0.8-2.7-0.4-4.1c0.3-1,1-1.5,2-1.7C69.7,45.6,71.5,45.4,73.6,45.4z"/>
		<path class="st1" d="M30.7,33c-0.7,0-1.2,0.1-1.7,0.1c-1.4,0-1.9-0.3-2.4-1.7c-0.2-0.5-0.3-1.1-0.3-1.7c-0.1-2.5,0.7-3.3,3.2-3.6
			c2.3-0.3,4.5-0.1,6.8,0.4c1.8,0.4,2.2,1.6,1.1,3.1c-1.1,1.4-2.6,2.4-4.1,3.2C32.3,33.2,31.4,32.9,30.7,33z"/>
		<path class="st1" d="M38.5,27.6c0,0-0.1,0-0.1,0C38.4,27.5,38.4,27.5,38.5,27.6C38.4,27.5,38.5,27.6,38.5,27.6
			C38.5,27.6,38.5,27.6,38.5,27.6z"/>
	</g>
</g>
</svg>
