<?xml version="1.0" encoding="utf-8"?>
<!-- Generator: Adobe Illustrator 28.1.0, SVG Export Plug-In . SVG Version: 6.00 Build 0)  -->
<svg version="1.1" id="Layer_1" xmlns="http://www.w3.org/2000/svg" xmlns:xlink="http://www.w3.org/1999/xlink" x="0px" y="0px"
	 viewBox="0 0 100 100" style="enable-background:new 0 0 100 100;" xml:space="preserve">
<style type="text/css">
	.st0{clip-path:url(#SVGID_00000000219058845424147100000012516455430126842793_);}
	.st1{fill:#9B326A;}
	.st2{fill:#FEFDFE;}
</style>
<g>
	<defs>
		<circle id="SVGID_1_" cx="50" cy="50" r="50"/>
	</defs>
	<clipPath id="SVGID_00000138573976653886070000000018092586045214022793_">
		<use xlink:href="#SVGID_1_"  style="overflow:visible;"/>
	</clipPath>
	<g style="clip-path:url(#SVGID_00000138573976653886070000000018092586045214022793_);">
		<path class="st1" d="M-2.5,31.5c0-11.2,0-22.4,0-33.6c0-0.4,0.1-0.4,0.4-0.4c34.7,0,69.4,0,104.2,0c0.4,0,0.4,0.1,0.4,0.4
			c0,34.7,0,69.4,0,104.2c0,0.4-0.1,0.4-0.4,0.4c-9.4,0-18.9,0-28.3,0c-0.1-0.4-0.4-0.7-0.8-0.9c-0.4-0.1-0.7-0.4-0.8-0.8
			c-0.1-0.4-0.4-0.7-0.8-0.9c-0.4-0.1-0.7-0.4-0.8-0.8c-0.2-0.4-0.4-0.7-0.9-0.9c-0.4-0.1-0.6-0.4-0.7-0.7c-0.2-0.4-0.4-0.8-0.8-0.9
			c-0.4-0.1-0.7-0.4-0.8-0.8c-0.1-0.3-0.3-0.6-0.6-0.7c-0.6-0.2-1-0.5-1-1.2c0-0.3-0.7-0.3-0.2-0.7c0.2-0.2,0.5-0.4,0.7-0.6
			c0.1-0.1,0.3-0.1,0.4-0.1c0.2-0.1,0.4-0.2,0.5-0.4c0.2-0.1,0.4-0.2,0.5-0.3c2.3-0.9,4.5-2.1,6.6-3.4c4.4-2.8,8.3-6.3,11.5-10.4
			c3-3.8,5.3-7.9,7-12.5c1.4-3.8,2.3-7.8,2.6-11.9c0.1-0.7,0.2-1.5,0.1-2.3c-1.3,0.9-2.6,1.8-3.9,2.7c-0.9,0.6-1.8,0.9-2.9,0.9
			c-6.6,0-13.2,0-19.8,0c-1.5,0-2.7,0.4-3.9,1.3c-1.5,1.1-3,2.2-4.6,3.3c-1.6,1.1-3.9,0.3-4.4-1.7c-0.3-1.3,0.2-2.4,1.2-3.2
			c1.8-1.3,3.7-2.6,5.4-4c1.5-1.2,3.1-1.6,5-1.6c6.4,0.1,12.8,0,19.2,0c1,0,2-0.3,2.8-0.9c0.5-0.4,1.1-0.8,1.7-1.3
			c1.2-0.9,2.4-1.2,3.8-0.5c0,0,0.1,0.1,0.1,0c0,0,0-0.1,0-0.1c-0.1-2.4-0.5-4.7-1.1-7c-1.7-7.3-5.1-13.8-10-19.5
			C79.7,14.7,74.1,10.7,67.6,8c-5.3-2.2-10.8-3.4-16.5-3.5c-3.2-0.1-6.4,0.2-9.5,0.8c-5.8,1.1-11.2,3.2-16.1,6.4
			c-5.8,3.8-10.6,8.6-14.2,14.5c-2,3.3-3.7,6.8-4.7,10.6c-0.3,1-0.6,2-0.9,3c-0.1-0.1-0.1-0.2-0.2-0.2C4.9,39.5,4.9,39,5,38.7
			c0.2-0.6,0-0.8-0.4-1.1c-1.1-1-2.2-2-3.2-3.1c-0.2-0.3-0.5-0.5-0.8-0.6c-0.3-0.1-0.7-0.3-0.9-0.7c-0.2-0.3-0.4-0.3-0.6-0.1
			c-0.3,0.3-0.5,0.3-0.7-0.1c-0.1-0.1-0.2-0.2-0.3-0.3c-0.2-0.2-0.6-0.4-0.3-0.8C-2,31.6-2.3,31.6-2.5,31.5z"/>
		<path class="st1" d="M67.1,92.1c-0.1,0.3-0.3,0.3-0.5,0.4c-0.1,0-0.3,0.1-0.4,0.1c-0.3,0.2-0.5,0.4-0.7,0.6
			c-0.4,0.4,0.2,0.4,0.2,0.7c0,0.7,0.4,1,1,1.2c0.3,0.1,0.5,0.4,0.6,0.7c0.1,0.4,0.4,0.7,0.8,0.8c0.5,0.1,0.7,0.5,0.8,0.9
			c0.1,0.4,0.4,0.6,0.7,0.7c0.5,0.1,0.7,0.4,0.9,0.9c0.2,0.4,0.4,0.7,0.8,0.8c0.4,0.1,0.7,0.5,0.8,0.9c0.1,0.4,0.4,0.7,0.8,0.8
			c0.4,0.1,0.7,0.4,0.8,0.9c-25.3,0-50.5,0-75.8,0c-0.4,0-0.5-0.1-0.5-0.5c0-23.5,0-47,0-70.5c0.2,0,0.5,0.1,0.3,0.3
			c-0.3,0.5,0.1,0.6,0.3,0.8c0.1,0.1,0.2,0.2,0.3,0.3c0.2,0.3,0.4,0.4,0.7,0.1c0.2-0.2,0.5-0.2,0.6,0.1c0.2,0.3,0.5,0.5,0.9,0.7
			c0.3,0.1,0.6,0.4,0.8,0.6c1,1.1,2.2,2.1,3.2,3.1C5,37.9,5.3,38.1,5,38.7c-0.1,0.3-0.2,0.8,0.4,0.9c0.1,0,0.1,0.1,0.2,0.2
			c0,0.3,0,0.5-0.1,0.8c-0.4,1.6-0.6,3.2-0.7,4.8c-0.4,4-0.3,8,0.4,12c1.2,7,3.8,13.4,8,19.2c4.7,6.4,10.6,11.3,17.8,14.7
			c4.6,2.1,9.4,3.4,14.4,3.9c3.2,0.3,6.5,0.3,9.7-0.1c2.8-0.3,5.6-0.9,8.3-1.7C64.7,93,65.9,92.6,67.1,92.1z"/>
		<path class="st2" d="M67.1,92.1c-1.2,0.4-2.4,0.9-3.6,1.3c-2.7,0.8-5.5,1.4-8.3,1.7c-3.2,0.4-6.5,0.4-9.7,0.1
			c-5-0.5-9.9-1.8-14.4-3.9c-7.2-3.3-13.2-8.2-17.8-14.7c-4.2-5.8-6.8-12.2-8-19.2c-0.7-4-0.8-8-0.4-12c0.2-1.6,0.4-3.2,0.7-4.8
			c0.1-0.3,0.1-0.5,0.1-0.8c0.3-1,0.6-2,0.9-3c1.1-3.7,2.7-7.3,4.7-10.6c3.6-5.9,8.4-10.8,14.2-14.5c4.9-3.2,10.3-5.3,16.1-6.4
			c3.1-0.6,6.3-0.9,9.5-0.8C56.8,4.6,62.3,5.8,67.6,8c6.5,2.7,12.1,6.7,16.7,12.1c4.9,5.7,8.3,12.1,10,19.5c0.5,2.3,0.9,4.6,1.1,7
			c0,0-0.1,0.1-0.1,0.1c-1.4-0.7-2.6-0.4-3.8,0.5c-0.5,0.4-1.1,0.8-1.7,1.3C89,49,88,49.3,87,49.3c-6.4,0-12.8,0-19.2,0
			c-1.9,0-3.5,0.4-5,1.6c-1.7,1.4-3.6,2.6-5.4,4c-1.1,0.8-1.6,1.8-1.2,3.2c0.5,1.9,2.7,2.8,4.4,1.7c1.5-1.1,3.1-2.1,4.6-3.3
			c1.2-0.9,2.4-1.3,3.9-1.3c6.6,0,13.2,0,19.8,0c1,0,2-0.3,2.9-0.9c1.2-0.9,2.5-1.8,3.9-2.7c0.1,0.8,0,1.6-0.1,2.3
			c-0.3,4.1-1.2,8-2.6,11.9c-1.7,4.5-4,8.7-7,12.5c-3.3,4.1-7.1,7.6-11.5,10.4c-2.1,1.3-4.3,2.5-6.6,3.4
			C67.5,91.9,67.3,92,67.1,92.1z M26.1,59.3c-0.5,0.2-0.9,0.6-1.2,1c-0.7,0.9-0.7,2.2-0.1,3.1c0.7,1.1,1.9,1.7,3,1.3
			c1.5-0.5,2.6-1.6,3.8-2.6c1.2-0.6,2.2-1.5,3.3-2.3c1.4-1,2.8-1.9,4.1-3c1.2-1,3.2-1.1,4.4-0.2c0.4,0.3,0.6,0.6,0.7,1.1
			c0.4,2.1,2.8,3.1,4.4,1.9c2.3-1.6,4.5-3.3,6.8-4.9c0.4-0.3,0.8-0.7,1.1-1.1c0.8-1.2,0.5-2.7-0.5-3.7c-1-0.9-2.6-0.9-3.7-0.1
			c-0.7,0.5-1.4,1-2.1,1.6c-0.3,0.2-0.4,0.2-0.5-0.2c-0.6-1.8-2.8-2.6-4.4-1.4c-0.5,0.4-1,0.7-1.5,1.1c-0.3,0.3-0.5,0.2-0.7-0.1
			c-0.6-1.1-1.6-1.7-2.8-1.6c-0.9,0.1-1.6,0.6-2.2,1.2C34.1,53.4,30,56.2,26.1,59.3z M48,47.4c3.4,0,6.2-2.8,6.2-6.2
			c0-3.6-2.9-6.2-6.2-6.2c-3.4,0-6.2,2.8-6.2,6.2C41.8,44.7,44.6,47.5,48,47.4z M73,38.5c-0.1-1.1-0.6-2-1.6-2.5c-1-0.5-2-0.5-3,0.3
			c-0.9,0.7-1.8,1.3-2.7,2c-1.6,1.2-3.2,2.3-4.8,3.5c-1.3,1-1.5,2.6-0.5,3.9c0.9,1.3,2.6,1.5,4,0.6c2.4-1.8,4.9-3.5,7.3-5.3
			C72.5,40.4,72.9,39.6,73,38.5z"/>
		<path class="st2" d="M95.4,46.5c0,0,0,0.1,0,0.1c0,0.1-0.1,0-0.1,0C95.3,46.5,95.3,46.5,95.4,46.5z"/>
		<path class="st1" d="M26.1,59.3c3.9-3,8-5.9,12-8.9c0.7-0.5,1.3-1.1,2.2-1.2c1.3-0.1,2.3,0.5,2.8,1.6c0.2,0.4,0.3,0.4,0.7,0.1
			c0.5-0.4,1-0.8,1.5-1.1c1.5-1.2,3.8-0.4,4.4,1.4c0.1,0.4,0.2,0.4,0.5,0.2c0.7-0.5,1.4-1,2.1-1.6c1.1-0.9,2.6-0.8,3.7,0.1
			c1.1,0.9,1.3,2.4,0.5,3.7c-0.3,0.5-0.7,0.8-1.1,1.1c-2.3,1.6-4.5,3.3-6.8,4.9c-1.7,1.2-4.1,0.2-4.4-1.9c-0.1-0.5-0.3-0.8-0.7-1.1
			c-1.2-0.9-3.2-0.8-4.4,0.2c-1.3,1-2.7,2-4.1,3c-1.1,0.8-2.1,1.6-3.3,2.3c-0.2,0-0.4,0-0.6,0.1c-0.5,0.2-0.6,0.1-0.5-0.4
			c0.1-0.3,0-0.6-0.3-0.7c-0.5-0.2-0.8-0.6-1-1c-0.1-0.2-0.2-0.5-0.5-0.3c-0.2,0.1-0.4,0-0.6,0C27.4,59.6,26.8,59.2,26.1,59.3z"/>
		<path class="st1" d="M48,47.4c-3.4,0-6.2-2.7-6.2-6.2c0-3.4,2.8-6.2,6.2-6.2c3.3,0,6.2,2.6,6.2,6.2C54.2,44.7,51.4,47.4,48,47.4z
			 M48,42.4c0.7,0,1.2-0.5,1.2-1.2c0-0.6-0.5-1.2-1.2-1.2c-0.6,0-1.1,0.5-1.1,1.1C46.8,41.9,47.3,42.4,48,42.4z"/>
		<path class="st1" d="M73,38.5c0,1-0.5,1.8-1.3,2.4c-2.4,1.8-4.9,3.5-7.3,5.3c-1.3,0.9-3,0.7-4-0.6c-1-1.3-0.8-2.9,0.5-3.9
			c1.6-1.2,3.2-2.3,4.8-3.5c0.9-0.7,1.8-1.3,2.7-2c0.9-0.7,2-0.7,3-0.3C72.4,36.5,72.9,37.4,73,38.5z"/>
		<path class="st1" d="M26.1,59.3c0.7-0.1,1.3,0.3,1.9,0.3c0.2,0,0.4,0.1,0.6,0c0.3-0.1,0.5,0.1,0.5,0.3c0.2,0.5,0.5,0.8,1,1
			c0.3,0.1,0.4,0.4,0.3,0.7c-0.1,0.5,0.1,0.6,0.5,0.4c0.2-0.1,0.4-0.1,0.6-0.1c-1.2,1-2.3,2.1-3.8,2.6c-1.1,0.4-2.3-0.2-3-1.3
			c-0.6-0.9-0.6-2.2,0.1-3.1C25.2,59.9,25.6,59.5,26.1,59.3z"/>
		<path class="st2" d="M48,42.4c-0.7,0-1.2-0.5-1.2-1.2c0-0.6,0.5-1.1,1.1-1.1c0.6,0,1.2,0.5,1.2,1.2C49.2,41.9,48.6,42.4,48,42.4z"
			/>
	</g>
</g>
</svg>
